<svg width="13" height="14" viewBox="0 0 13 14" fill="none" xmlns="http://www.w3.org/2000/svg">
<path fill-rule="evenodd" clip-rule="evenodd" d="M12.9954 13.6513L11.9262 3.90535C11.9083 3.74844 11.7658 3.6264 11.6054 3.6264H9.6274V3.03362C9.6274 1.3599 8.23744 0 6.52673 0C4.81602 0 3.42606 1.3599 3.42606 3.03362V3.6264H1.39459C1.23421 3.6264 1.09165 3.74844 1.07383 3.90535L0.00463549 13.6513C-0.0131844 13.7385 0.0224554 13.8257 0.0759152 13.8954C0.129375 13.9651 0.218475 14 0.307574 14H12.6924C12.7815 14 12.8706 13.9651 12.9241 13.8954C12.9775 13.8257 13.0132 13.7385 12.9954 13.6513ZM9.30664 5.3873C9.46702 5.3873 9.59176 5.50934 9.59176 5.66625C9.59176 5.82316 9.46702 5.94521 9.30664 5.94521C9.14626 5.94521 9.02152 5.82316 9.02152 5.66625C9.02152 5.50934 9.14626 5.3873 9.30664 5.3873ZM6.52673 0.627646C5.17242 0.627646 4.06758 1.70859 4.06758 3.03362V3.6264H8.98588V3.03362C8.98588 1.70859 7.88104 0.627646 6.52673 0.627646ZM3.74682 5.3873C3.9072 5.3873 4.03194 5.50934 4.03194 5.66625C4.03194 5.82316 3.9072 5.94521 3.74682 5.94521C3.58644 5.94521 3.4617 5.82316 3.4617 5.66625C3.4617 5.50934 3.58644 5.3873 3.74682 5.3873ZM1.67971 4.23661L0.681793 13.3549H12.3717L11.3738 4.23661H9.55612V4.81196C9.91252 4.934 10.162 5.26526 10.162 5.64882C10.162 6.13699 9.75214 6.53798 9.25318 6.53798C8.75422 6.53798 8.34436 6.13699 8.34436 5.64882C8.34436 5.26526 8.59384 4.934 8.95024 4.81196V4.23661H4.03194V4.81196C4.38834 4.934 4.63782 5.26526 4.63782 5.64882C4.63782 6.13699 4.22796 6.53798 3.729 6.53798C3.23004 6.53798 2.82018 6.13699 2.82018 5.64882C2.82018 5.26526 3.06966 4.934 3.42606 4.81196V4.23661H1.67971Z" fill="#181009"/>
</svg>
