<svg width="13" height="14" viewBox="0 0 13 14" fill="none" xmlns="http://www.w3.org/2000/svg">
<path fill-rule="evenodd" clip-rule="evenodd" d="M9.14135 9.46796L12.929 13.5525C13.0263 13.6577 13.0233 13.825 12.9218 13.9263C12.8724 13.9754 12.8089 14 12.7452 14C12.6781 14 12.6114 13.973 12.5614 13.9189L8.7646 9.82426C7.83777 10.6212 6.64865 11.1015 5.35297 11.1015C2.40119 11.1015 0 8.61156 0 5.55073C0 2.4899 2.40119 0 5.35297 0C8.30476 0 10.7059 2.4899 10.7059 5.55073C10.7059 7.07824 10.1074 8.46328 9.14135 9.46796ZM0.509807 5.55073C0.509807 8.32002 2.68235 10.5728 5.35297 10.5728C8.02334 10.5728 10.1961 8.32002 10.1961 5.55073C10.1961 2.78144 8.0236 0.528641 5.35297 0.528641C2.68235 0.528641 0.509807 2.78144 0.509807 5.55073Z" fill="#181009"/>
</svg>
