<svg width="13" height="13" viewBox="0 0 13 13" fill="none" xmlns="http://www.w3.org/2000/svg">
<path fill-rule="evenodd" clip-rule="evenodd" d="M1.3 0H11.7C12.415 0 13 0.585 13 1.3V11.7C13 12.415 12.415 13 11.7 13H1.3C0.585 13 0 12.415 0 11.7V1.3C0 0.585 0.585 0 1.3 0ZM9.09999 6.4999C9.09999 5.0699 7.92999 3.8999 6.49999 3.8999C5.06999 3.8999 3.89999 5.0699 3.89999 6.4999C3.89999 7.9299 5.06999 9.0999 6.49999 9.0999C7.92999 9.0999 9.09999 7.9299 9.09999 6.4999ZM1.625 11.7001C1.43 11.7001 1.3 11.5701 1.3 11.3751V5.8501H2.665C2.6 6.0451 2.6 6.3051 2.6 6.5001C2.6 8.6451 4.355 10.4001 6.5 10.4001C8.645 10.4001 10.4 8.6451 10.4 6.5001C10.4 6.3051 10.4 6.0451 10.335 5.8501H11.7V11.3751C11.7 11.5701 11.57 11.7001 11.375 11.7001H1.625ZM11.375 3.2498C11.57 3.2498 11.7 3.1198 11.7 2.9248V1.6248C11.7 1.4298 11.57 1.2998 11.375 1.2998H10.075C9.88 1.2998 9.75 1.4298 9.75 1.6248V2.9248C9.75 3.1198 9.88 3.2498 10.075 3.2498H11.375Z" fill="#181009"/>
</svg>
