<svg width="14" height="14" viewBox="0 0 14 14" fill="none" xmlns="http://www.w3.org/2000/svg">
<path fill-rule="evenodd" clip-rule="evenodd" d="M11.9498 2.05295C10.65 0.753897 8.92908 0.0291486 7.0948 0.00492189C7.06284 0.00202345 7.03113 0 7 0C6.96887 0 6.93716 0.00202345 6.9052 0.00492189C5.07092 0.0291212 3.34998 0.75387 2.05023 2.05292C0.728122 3.37437 0 5.13127 0 7C0 8.86873 0.728122 10.6257 2.05025 11.9471C3.35001 13.2461 5.07092 13.9709 6.90523 13.9951C6.93718 13.998 6.96889 14 7 14C7.03113 14 7.06284 13.998 7.0948 13.9951C8.92911 13.9709 10.65 13.2461 11.9498 11.9471C13.2719 10.6257 14 8.86879 14 7C14 5.13127 13.2719 3.37437 11.9498 2.05295ZM2.63868 2.64106C3.38232 1.89783 4.28255 1.36815 5.26489 1.08197C5.04348 1.33673 4.82825 1.62975 4.62793 1.95446C4.37242 2.36861 4.1512 2.81748 3.96596 3.29209H2.07178C2.24414 3.06423 2.43308 2.84655 2.63868 2.64106ZM3.68578 4.12381H1.5416C1.14159 4.87992 0.903874 5.71451 0.846284 6.58415H3.29835C3.33094 5.73458 3.46281 4.90371 3.68578 4.12381ZM1.54163 9.87622C1.14157 9.12011 0.903846 8.28552 0.846256 7.41587H3.29833C3.33091 8.26547 3.46278 9.09634 3.68575 9.87622H1.54163ZM2.07178 10.7079C2.24412 10.9358 2.43306 11.1535 2.63871 11.359C3.38237 12.1022 4.28261 12.6319 5.26492 12.9181C5.0435 12.6633 4.82827 12.3703 4.62795 12.0456C4.37243 11.6314 4.15123 11.1825 3.96599 10.7079H2.07178ZM6.5839 12.9971L6.58388 12.9971V10.708H4.86573C5.00452 11.0244 5.16153 11.3259 5.33621 11.6091C5.77175 12.315 6.23722 12.7704 6.58388 12.9971V12.9971H6.5839ZM4.55403 9.87622H6.5839V7.41587H4.13109C4.16655 8.27247 4.31087 9.10561 4.55403 9.87622ZM6.5839 6.58415H4.13109C4.16652 5.72755 4.31084 4.89439 4.55403 4.12381H6.5839V6.58415ZM4.86576 3.29206H6.5839H6.58393V1.00289C6.23727 1.22954 5.77176 1.68501 5.33624 2.39097C5.16156 2.67409 5.00455 2.97564 4.86576 3.29206ZM12.4584 4.12381C12.8585 4.87995 13.0962 5.71451 13.1537 6.58415H10.7016C10.6691 5.73455 10.5372 4.90368 10.3142 4.12381H12.4584ZM11.9282 3.29209C11.7559 3.06423 11.5669 2.84655 11.3613 2.64106C10.6177 1.89783 9.71745 1.36815 8.73514 1.08197C8.95658 1.33673 9.17178 1.62975 9.3721 1.95446C9.62763 2.36861 9.84882 2.81748 10.0341 3.29209H11.9282ZM7.4161 1.00289L7.41612 1.00291V3.29206H9.13427C8.99548 2.97564 8.83847 2.67409 8.66379 2.39097C8.22825 1.68503 7.76278 1.22959 7.41612 1.00291V1.00289H7.4161ZM9.44597 4.12381H7.4161V6.58415H9.86891C9.83348 5.72761 9.68916 4.89441 9.44597 4.12381ZM9.86888 7.41587C9.83345 8.27247 9.68913 9.10564 9.44594 9.87622H7.41607V7.41587H9.86888ZM7.4161 10.708V12.9971C7.76276 12.7705 8.22824 12.315 8.66376 11.6091C8.83844 11.3259 8.99545 11.0244 9.13424 10.708H7.4161ZM11.3613 11.359C10.6177 12.1022 9.71747 12.6319 8.73514 12.9181C8.95655 12.6633 9.17178 12.3703 9.3721 12.0456C9.6276 11.6314 9.84882 11.1826 10.0341 10.708H11.9282C11.7559 10.9358 11.5669 11.1535 11.3613 11.359ZM10.3142 9.87622H12.4584C12.8584 9.12011 13.0961 8.28552 13.1537 7.41587H10.7016C10.6691 8.26547 10.5372 9.09634 10.3142 9.87622Z" fill="#181009"/>
</svg>
