<svg width="14" height="8" viewBox="0 0 14 8" fill="none" xmlns="http://www.w3.org/2000/svg">
<g clip-path="url(#clip0)">
<path d="M14 7.38641H0V8H14V7.38641Z" fill="#CB001C"/>
<path d="M14 6.77282H0V7.38641H14V6.77282Z" fill="white"/>
<path d="M14 6.15146H0V6.76505H14V6.15146Z" fill="#CB001C"/>
<path d="M14 5.53786H0V6.15146H14V5.53786Z" fill="white"/>
<path d="M14 4.92427H0V5.53786H14V4.92427Z" fill="#CB001C"/>
<path d="M14 4.31068H0V4.92427H14V4.31068Z" fill="white"/>
<path d="M14 3.68932H0V4.30291H14V3.68932Z" fill="#CB001C"/>
<path d="M14 3.07573H0V3.68932H14V3.07573Z" fill="white"/>
<path d="M14 2.46214H0V3.07573H14V2.46214Z" fill="#CB001C"/>
<path d="M14 1.84854H0V2.46214H14V1.84854Z" fill="white"/>
<path d="M14 1.22719H0V1.84078H14V1.22719Z" fill="#CB001C"/>
<path d="M14 0.613592H0V1.22718H14V0.613592Z" fill="white"/>
<path d="M14 0H0V0.613592H14V0Z" fill="#CB001C"/>
<path d="M6.38958 0H0V4.31068H6.38958V0Z" fill="#2A3560"/>
<path d="M0.578714 0.473787L0.634207 0.636894H0.808612L0.665917 0.737864L0.72141 0.900971L0.578714 0.8L0.436019 0.900971L0.491511 0.737864L0.348816 0.636894H0.523221L0.578714 0.473787Z" fill="white"/>
<path d="M0.578714 1.19612L0.634207 1.35922H0.808612L0.665917 1.46019L0.72141 1.6233L0.578714 1.52233L0.436019 1.6233L0.491511 1.46019L0.348816 1.35922H0.523221L0.578714 1.19612Z" fill="white"/>
<path d="M0.578714 1.91068L0.634207 2.07379H0.808612L0.665917 2.17476L0.72141 2.33787L0.578714 2.23689L0.436019 2.33787L0.491511 2.17476L0.348816 2.07379H0.523221L0.578714 1.91068Z" fill="white"/>
<path d="M0.578714 2.63301L0.634207 2.79612H0.808612L0.665917 2.89709L0.72141 3.06019L0.578714 2.95922L0.436019 3.06019L0.491511 2.89709L0.348816 2.79612H0.523221L0.578714 2.63301Z" fill="white"/>
<path d="M0.578714 3.34757L0.634207 3.51068H0.808612L0.665917 3.61165L0.72141 3.77476L0.578714 3.67379L0.436019 3.77476L0.491511 3.61165L0.348816 3.51068H0.523221L0.578714 3.34757Z" fill="white"/>
<path d="M1.08607 0.854369L1.14156 1.01748H1.31597L1.17327 1.11845L1.22876 1.28155L1.08607 1.18058L0.951301 1.28155L0.998866 1.11845L0.856171 1.01748H1.0385L1.08607 0.854369Z" fill="white"/>
<path d="M1.08607 1.56893L1.14156 1.73204H1.31597L1.17327 1.83301L1.22876 1.99612L1.08607 1.90291L0.951301 1.99612L0.998866 1.83301L0.856171 1.73204H1.0385L1.08607 1.56893Z" fill="white"/>
<path d="M1.08607 2.29126L1.14156 2.45437H1.31597L1.17327 2.55534L1.22876 2.71845L1.08607 2.61748L0.951301 2.71845L0.998866 2.55534L0.856171 2.45437H1.0385L1.08607 2.29126Z" fill="white"/>
<path d="M1.08607 3.01359L1.14156 3.1767H1.31597L1.17327 3.27767L1.22876 3.43301L1.08607 3.33204L0.951301 3.43301L0.998866 3.27767L0.856171 3.1767H1.0385L1.08607 3.01359Z" fill="white"/>
<path d="M1.60137 0.473787L1.65686 0.636894H1.83126L1.6965 0.737864L1.75199 0.900971L1.60137 0.8L1.4666 0.900971L1.52209 0.737864L1.37939 0.636894H1.5538L1.60137 0.473787Z" fill="white"/>
<path d="M1.60137 1.19612L1.65686 1.35922H1.83126L1.6965 1.46019L1.75199 1.6233L1.60137 1.52233L1.4666 1.6233L1.52209 1.46019L1.37939 1.35922H1.5538L1.60137 1.19612Z" fill="white"/>
<path d="M1.60137 1.91068L1.65686 2.07379H1.83126L1.6965 2.17476L1.75199 2.33787L1.60137 2.23689L1.4666 2.33787L1.52209 2.17476L1.37939 2.07379H1.5538L1.60137 1.91068Z" fill="white"/>
<path d="M1.60137 2.63301L1.65686 2.79612H1.83126L1.6965 2.89709L1.75199 3.06019L1.60137 2.95922L1.4666 3.06019L1.52209 2.89709L1.37939 2.79612H1.5538L1.60137 2.63301Z" fill="white"/>
<path d="M1.60137 3.34757L1.65686 3.51068H1.83126L1.6965 3.61165L1.75199 3.77476L1.60137 3.67379L1.4666 3.77476L1.52209 3.61165L1.37939 3.51068H1.5538L1.60137 3.34757Z" fill="white"/>
<path d="M2.11665 0.854369L2.17214 1.01748H2.34654L2.20385 1.11845L2.25934 1.28155L2.11665 1.18058L1.97395 1.28155L2.02944 1.11845L1.88675 1.01748H2.06115L2.11665 0.854369Z" fill="white"/>
<path d="M2.11665 1.56893L2.17214 1.73204H2.34654L2.20385 1.83301L2.25934 1.99612L2.11665 1.90291L1.97395 1.99612L2.02944 1.83301L1.88675 1.73204H2.06115L2.11665 1.56893Z" fill="white"/>
<path d="M2.11665 2.29126L2.17214 2.45437H2.34654L2.20385 2.55534L2.25934 2.71845L2.11665 2.61748L1.97395 2.71845L2.02944 2.55534L1.88675 2.45437H2.06115L2.11665 2.29126Z" fill="white"/>
<path d="M2.11665 3.01359L2.17214 3.1767H2.34654L2.20385 3.27767L2.25934 3.43301L2.11665 3.33204L1.97395 3.43301L2.02944 3.27767L1.88675 3.1767H2.06115L2.11665 3.01359Z" fill="white"/>
<path d="M2.63194 0.473787L2.68744 0.636894H2.86184L2.71915 0.737864L2.77464 0.900971L2.63194 0.8L2.49718 0.900971L2.54474 0.737864L2.40997 0.636894H2.58438L2.63194 0.473787Z" fill="white"/>
<path d="M2.63194 1.19612L2.68744 1.35922H2.86184L2.71915 1.46019L2.77464 1.6233L2.63194 1.52233L2.49718 1.6233L2.54474 1.46019L2.40997 1.35922H2.58438L2.63194 1.19612Z" fill="white"/>
<path d="M2.63194 1.91068L2.68744 2.07379H2.86184L2.71915 2.17476L2.77464 2.33787L2.63194 2.23689L2.49718 2.33787L2.54474 2.17476L2.40997 2.07379H2.58438L2.63194 1.91068Z" fill="white"/>
<path d="M2.63194 2.63301L2.68744 2.79612H2.86184L2.71915 2.89709L2.77464 3.06019L2.63194 2.95922L2.49718 3.06019L2.54474 2.89709L2.40997 2.79612H2.58438L2.63194 2.63301Z" fill="white"/>
<path d="M2.63194 3.34757L2.68744 3.51068H2.86184L2.71915 3.61165L2.77464 3.77476L2.63194 3.67379L2.49718 3.77476L2.54474 3.61165L2.40997 3.51068H2.58438L2.63194 3.34757Z" fill="white"/>
<path d="M3.14723 0.854369L3.20272 1.01748H3.37712L3.23443 1.11845L3.28992 1.28155L3.14723 1.18058L3.00453 1.28155L3.06002 1.11845L2.91733 1.01748H3.09173L3.14723 0.854369Z" fill="white"/>
<path d="M3.14723 1.56893L3.20272 1.73204H3.37712L3.23443 1.83301L3.28992 1.99612L3.14723 1.90291L3.00453 1.99612L3.06002 1.83301L2.91733 1.73204H3.09173L3.14723 1.56893Z" fill="white"/>
<path d="M3.14723 2.29126L3.20272 2.45437H3.37712L3.23443 2.55534L3.28992 2.71845L3.14723 2.61748L3.00453 2.71845L3.06002 2.55534L2.91733 2.45437H3.09173L3.14723 2.29126Z" fill="white"/>
<path d="M3.14723 3.01359L3.20272 3.1767H3.37712L3.23443 3.27767L3.28992 3.43301L3.14723 3.33204L3.00453 3.43301L3.06002 3.27767L2.91733 3.1767H3.09173L3.14723 3.01359Z" fill="white"/>
<path d="M3.66252 0.473787L3.71801 0.636894H3.89241L3.74972 0.737864L3.80521 0.900971L3.66252 0.8L3.51982 0.900971L3.57531 0.737864L3.43262 0.636894H3.60702L3.66252 0.473787Z" fill="white"/>
<path d="M3.66252 1.19612L3.71801 1.35922H3.89241L3.74972 1.46019L3.80521 1.6233L3.66252 1.52233L3.51982 1.6233L3.57531 1.46019L3.43262 1.35922H3.60702L3.66252 1.19612Z" fill="white"/>
<path d="M3.66252 1.91068L3.71801 2.07379H3.89241L3.74972 2.17476L3.80521 2.33787L3.66252 2.23689L3.51982 2.33787L3.57531 2.17476L3.43262 2.07379H3.60702L3.66252 1.91068Z" fill="white"/>
<path d="M3.66252 2.63301L3.71801 2.79612H3.89241L3.74972 2.89709L3.80521 3.06019L3.66252 2.95922L3.51982 3.06019L3.57531 2.89709L3.43262 2.79612H3.60702L3.66252 2.63301Z" fill="white"/>
<path d="M3.66252 3.34757L3.71801 3.51068H3.89241L3.74972 3.61165L3.80521 3.77476L3.66252 3.67379L3.51982 3.77476L3.57531 3.61165L3.43262 3.51068H3.60702L3.66252 3.34757Z" fill="white"/>
<path d="M4.1778 0.854369L4.22537 1.01748H4.4077L4.26501 1.11845L4.31257 1.28155L4.1778 1.18058L4.03511 1.28155L4.0906 1.11845L3.94791 1.01748H4.12231L4.1778 0.854369Z" fill="white"/>
<path d="M4.1778 1.56893L4.22537 1.73204H4.4077L4.26501 1.83301L4.31257 1.99612L4.1778 1.90291L4.03511 1.99612L4.0906 1.83301L3.94791 1.73204H4.12231L4.1778 1.56893Z" fill="white"/>
<path d="M4.1778 2.29126L4.22537 2.45437H4.4077L4.26501 2.55534L4.31257 2.71845L4.1778 2.61748L4.03511 2.71845L4.0906 2.55534L3.94791 2.45437H4.12231L4.1778 2.29126Z" fill="white"/>
<path d="M4.1778 3.01359L4.22537 3.1767H4.4077L4.26501 3.27767L4.31257 3.43301L4.1778 3.33204L4.03511 3.43301L4.0906 3.27767L3.94791 3.1767H4.12231L4.1778 3.01359Z" fill="white"/>
<path d="M4.69309 0.473787L4.74859 0.636894H4.92299L4.7803 0.737864L4.83579 0.900971L4.69309 0.8L4.5504 0.900971L4.60589 0.737864L4.4632 0.636894H4.6376L4.69309 0.473787Z" fill="white"/>
<path d="M4.69309 1.19612L4.74859 1.35922H4.92299L4.7803 1.46019L4.83579 1.6233L4.69309 1.52233L4.5504 1.6233L4.60589 1.46019L4.4632 1.35922H4.6376L4.69309 1.19612Z" fill="white"/>
<path d="M4.69309 1.91068L4.74859 2.07379H4.92299L4.7803 2.17476L4.83579 2.33787L4.69309 2.23689L4.5504 2.33787L4.60589 2.17476L4.4632 2.07379H4.6376L4.69309 1.91068Z" fill="white"/>
<path d="M4.69309 2.63301L4.74859 2.79612H4.92299L4.7803 2.89709L4.83579 3.06019L4.69309 2.95922L4.5504 3.06019L4.60589 2.89709L4.4632 2.79612H4.6376L4.69309 2.63301Z" fill="white"/>
<path d="M4.69309 3.34757L4.74859 3.51068H4.92299L4.7803 3.61165L4.83579 3.77476L4.69309 3.67379L4.5504 3.77476L4.60589 3.61165L4.4632 3.51068H4.6376L4.69309 3.34757Z" fill="white"/>
<path d="M5.20045 0.854369L5.25595 1.01748H5.43035L5.29558 1.11845L5.34315 1.28155L5.20045 1.18058L5.05776 1.28155L5.11325 1.11845L4.97849 1.01748H5.15289L5.20045 0.854369Z" fill="white"/>
<path d="M5.20045 1.56893L5.25595 1.73204H5.43035L5.29558 1.83301L5.34315 1.99612L5.20045 1.90291L5.05776 1.99612L5.11325 1.83301L4.97849 1.73204H5.15289L5.20045 1.56893Z" fill="white"/>
<path d="M5.20045 2.29126L5.25595 2.45437H5.43035L5.29558 2.55534L5.34315 2.71845L5.20045 2.61748L5.05776 2.71845L5.11325 2.55534L4.97849 2.45437H5.15289L5.20045 2.29126Z" fill="white"/>
<path d="M5.20045 3.01359L5.25595 3.1767H5.43035L5.29558 3.27767L5.34315 3.43301L5.20045 3.33204L5.05776 3.43301L5.11325 3.27767L4.97849 3.1767H5.15289L5.20045 3.01359Z" fill="white"/>
<path d="M5.72367 0.473787L5.77917 0.636894H5.94564L5.81088 0.737864L5.86637 0.900971L5.72367 0.8L5.58098 0.900971L5.63647 0.737864L5.49377 0.636894H5.66818L5.72367 0.473787Z" fill="white"/>
<path d="M5.72367 1.19612L5.77917 1.35922H5.94564L5.81088 1.46019L5.86637 1.6233L5.72367 1.52233L5.58098 1.6233L5.63647 1.46019L5.49377 1.35922H5.66818L5.72367 1.19612Z" fill="white"/>
<path d="M5.72367 1.91068L5.77917 2.07379H5.94564L5.81088 2.17476L5.86637 2.33787L5.72367 2.23689L5.58098 2.33787L5.63647 2.17476L5.49377 2.07379H5.66818L5.72367 1.91068Z" fill="white"/>
<path d="M5.72367 2.63301L5.77917 2.79612H5.94564L5.81088 2.89709L5.86637 3.06019L5.72367 2.95922L5.58098 3.06019L5.63647 2.89709L5.49377 2.79612H5.66818L5.72367 2.63301Z" fill="white"/>
<path d="M5.72367 3.34757L5.77917 3.51068H5.94564L5.81088 3.61165L5.86637 3.77476L5.72367 3.67379L5.58098 3.77476L5.63647 3.61165L5.49377 3.51068H5.66818L5.72367 3.34757Z" fill="white"/>
</g>
<defs>
<clipPath id="clip0">
<rect width="14" height="8" fill="white"/>
</clipPath>
</defs>
</svg>
