<svg width="34" height="46" viewBox="0 0 34 46" fill="none" xmlns="http://www.w3.org/2000/svg">
<path d="M16.9993 0C7.62634 0 0 7.59731 0 16.9355C0 19.3713 0.500451 21.6969 1.48671 23.8483C5.737 33.1136 13.886 42.8957 16.2829 45.6728C16.4625 45.8804 16.7243 46 16.9998 46C17.2753 46 17.5371 45.8804 17.7167 45.6728C20.1126 42.8962 28.2616 33.1145 32.5133 23.8483C33.5 21.6969 34 19.3713 34 16.9355C33.9991 7.59731 26.3727 0 16.9993 0ZM16.9993 25.7319C12.1304 25.7319 8.16885 21.7854 8.16885 16.9351C8.16885 12.0842 12.1304 8.13775 16.9993 8.13775C21.8682 8.13775 25.8297 12.0842 25.8297 16.9351C25.8302 21.7854 21.8687 25.7319 16.9993 25.7319Z" fill="#FDB03B"/>
</svg>
