<svg width="11" height="13" viewBox="0 0 11 13" fill="none" xmlns="http://www.w3.org/2000/svg">
<path d="M5.68405 0C1.97338 0 0 2.28323 0 4.77284C0 5.92746 0.671898 7.36727 1.74744 7.82392C1.91076 7.89461 1.99962 7.86454 2.036 7.7191C2.06816 7.60859 2.20948 7.07638 2.27802 6.82531C2.29918 6.74487 2.28818 6.67499 2.22048 6.59942C1.86337 6.20291 1.57989 5.48056 1.57989 4.80291C1.57989 3.06651 3.01762 1.3805 5.46404 1.3805C7.57958 1.3805 9.05962 2.70006 9.05962 4.58758C9.05962 6.72049 7.88422 8.19606 6.3568 8.19606C5.51142 8.19606 4.88184 7.55903 5.08154 6.77087C5.32272 5.83239 5.79575 4.82322 5.79575 4.14638C5.79575 3.53941 5.43865 3.03726 4.70921 3.03726C3.8486 3.03726 3.15047 3.85549 3.15047 4.95404C3.15047 5.65201 3.40772 6.12328 3.40772 6.12328C3.40772 6.12328 2.55643 9.42543 2.39818 10.0421C2.13078 11.0863 2.43457 12.7771 2.4608 12.9226C2.47688 13.003 2.57081 13.0282 2.62328 12.9624C2.70705 12.8568 3.73606 11.447 4.02462 10.4281C4.12955 10.0568 4.56027 8.55114 4.56027 8.55114C4.84376 9.04272 5.66205 9.45468 6.53366 9.45468C9.12647 9.45468 11 7.26652 11 4.55102C10.9907 1.94765 8.67036 0 5.68405 0Z" fill="#181009"/>
</svg>
