<svg width="16" height="13" viewBox="0 0 16 13" fill="none" xmlns="http://www.w3.org/2000/svg">
<path d="M16 1.54383C15.3705 1.81468 14.7409 1.98384 14.1117 2.05178C14.8224 1.62522 15.3031 1.0226 15.5535 0.243964C14.9035 0.629832 14.2099 0.893824 13.4722 1.03608C12.8224 0.345456 12.0239 0 11.0761 0C10.1693 0 9.3961 0.319878 8.75625 0.959777C8.11676 1.59964 7.79698 2.37315 7.79698 3.28042C7.79698 3.52414 7.824 3.77476 7.87819 4.03202C6.53805 3.96433 5.2809 3.62748 4.10653 3.02148C2.93223 2.41542 1.93562 1.60796 1.11669 0.599131C0.818887 1.10684 0.669931 1.65876 0.669931 2.25459C0.669931 2.81658 0.80189 3.33802 1.06599 3.81876C1.3299 4.29943 1.68532 4.68871 2.13204 4.98668C1.60403 4.96633 1.10997 4.82749 0.649804 4.57018V4.61081C0.649804 5.40307 0.898539 6.09864 1.39594 6.69806C1.89341 7.2974 2.5212 7.67466 3.27918 7.83047C2.99488 7.90486 2.70717 7.9421 2.4162 7.9421C2.22667 7.9421 2.02021 7.9252 1.7969 7.89159C2.0067 8.54824 2.39251 9.08804 2.9542 9.51143C3.516 9.93462 4.15222 10.1528 4.8629 10.1666C3.67175 11.1009 2.31475 11.568 0.791898 11.568C0.500812 11.568 0.236929 11.5547 0 11.5275C1.52288 12.5092 3.20137 13 5.03557 13C6.1997 13 7.29279 12.8157 8.31447 12.4466C9.33664 12.0777 10.2097 11.5833 10.9339 10.9637C11.658 10.3441 12.2825 9.6315 12.8069 8.82579C13.3314 8.02001 13.7222 7.1788 13.9796 6.30198C14.2367 5.42498 14.3653 4.54663 14.3653 3.66626C14.3653 3.47665 14.3619 3.33453 14.3551 3.23969C14.9983 2.77272 15.5465 2.20724 16 1.54383Z" fill="#181009"/>
</svg>
