<svg width="11" height="13" viewBox="0 0 11 13" fill="none" xmlns="http://www.w3.org/2000/svg">
<path fill-rule="evenodd" clip-rule="evenodd" d="M10.807 7.12587C10.7428 6.85901 10.6004 6.63521 10.3802 6.45439C10.1599 6.27357 9.9064 6.16728 9.61932 6.13561C8.70892 6.04519 7.33586 6 5.49999 6C3.66416 6 2.29355 6.04521 1.38801 6.13561C1.09614 6.16728 0.841326 6.27357 0.623527 6.45439C0.40578 6.63528 0.262279 6.8591 0.192972 7.12587C0.0643415 7.65051 0 8.44183 0 9.5C0 10.5762 0.0643415 11.3676 0.192972 11.8741C0.257392 12.1408 0.399671 12.3648 0.619862 12.5455C0.840053 12.7264 1.09365 12.8304 1.3806 12.8575C2.29115 12.9525 3.66432 13 5.50004 13C7.33563 13 8.70905 12.9525 9.61927 12.8575C9.90635 12.8304 10.1586 12.7264 10.3764 12.5455C10.5942 12.3648 10.7377 12.1408 10.8069 11.8741C10.9356 11.3495 11 10.5581 11 9.5C11 8.42378 10.9356 7.63236 10.807 7.12587ZM2.34569 7.81141V11.6708H1.60352V7.81141H0.824142V7.17383H3.13989V7.81141H2.34569ZM4.48323 11.3043V11.6706H5.14383V8.31982H4.48325V10.8838C4.33487 11.0737 4.19376 11.1687 4.06019 11.1687C3.97107 11.1687 3.91916 11.1212 3.90431 11.0262C3.89932 11.0126 3.89682 10.9335 3.89682 10.7888V8.31982H3.23625V10.9719C3.23625 11.1935 3.25614 11.3586 3.29568 11.4671C3.35498 11.6344 3.49851 11.7181 3.72608 11.7181C3.96358 11.7181 4.21604 11.5802 4.48323 11.3043ZM7.66737 10.6669C7.66737 10.997 7.64515 11.2232 7.60082 11.3454C7.51649 11.5939 7.34096 11.7183 7.07379 11.7183C6.83626 11.7183 6.60622 11.5939 6.38343 11.3454V11.6709H5.72296V7.17383H6.38343V8.64573C6.59632 8.40167 6.82631 8.27956 7.07379 8.27956C7.34096 8.27956 7.51649 8.40621 7.60082 8.65939C7.64512 8.77695 7.66737 9.00077 7.66737 9.33088V10.6669ZM8.7424 10.7008V10.1107H10.1761V9.41199C10.1761 9.05477 10.1094 8.79249 9.97567 8.62516C9.78295 8.39459 9.52052 8.2793 9.18893 8.2793C8.85235 8.2793 8.58763 8.39459 8.39456 8.62516C8.25612 8.79249 8.18692 9.05477 8.18692 9.41199V10.5855C8.18692 10.9428 8.25862 11.2051 8.40204 11.3724C8.59509 11.6029 8.86234 11.7182 9.20359 11.7182C9.5598 11.7182 9.82722 11.5984 10.0054 11.3587C10.0947 11.2366 10.1465 11.1145 10.1612 10.9925C10.171 10.9517 10.1761 10.8207 10.1761 10.599V10.5109H9.53952C9.53952 10.7415 9.53446 10.8794 9.52468 10.9246C9.49008 11.0875 9.34474 11.1688 9.18151 11.1688C8.95386 11.1688 8.7424 11.0129 8.7424 10.7008Z" fill="#181009"/>
<path d="M6.7171 9C6.5345 9 6.35615 9.04266 6.18152 9.12758V10.8725C6.35611 10.9575 6.5345 11 6.7171 11C7.02639 11 7.18152 10.8706 7.18152 10.6116V9.38844C7.18148 9.12945 7.02673 9 6.7171 9Z" fill="#181009"/>
<path d="M9.1957 8.75385C8.86234 8.75385 8.69568 8.95281 8.69568 9.35027V9.75385H9.69568V9.35027C9.69568 8.95259 9.52894 8.75385 9.1957 8.75385Z" fill="#181009"/>
<path d="M2.27097 2.97757V5H3.13552V2.97757L4.18152 0H3.29965L2.71186 1.96268L2.09794 0H1.18152C1.34293 0.417947 1.53026 0.883074 1.74354 1.39554C2.01448 2.08205 2.19018 2.60949 2.27097 2.97757Z" fill="#181009"/>
<path fill-rule="evenodd" clip-rule="evenodd" d="M5.97178 4.60157C5.78699 4.86718 5.52239 5 5.17779 5C4.84309 5 4.58098 4.86718 4.39121 4.60154C4.25136 4.40365 4.18152 4.09631 4.18152 3.67971V2.31252C4.18152 1.89592 4.25144 1.59115 4.39121 1.39843C4.5809 1.13282 4.84311 1 5.17779 1C5.52239 1 5.78699 1.13282 5.97178 1.39843C6.11149 1.59115 6.18152 1.89592 6.18152 2.31252V3.67974C6.18152 4.10154 6.11168 4.40885 5.97178 4.60157ZM5.49985 2.17189C5.49985 1.81251 5.39256 1.63281 5.17779 1.63281C4.96301 1.63281 4.85562 1.81251 4.85562 2.17189V3.81244C4.85562 4.17702 4.96301 4.35929 5.17779 4.35929C5.39256 4.35929 5.49985 4.17713 5.49985 3.81244V2.17189Z" fill="#181009"/>
<path d="M7.69491 5C7.95048 5 8.21362 4.83662 8.48427 4.50979V4.94457H9.18152V1H8.48427V4.01177C8.33097 4.23842 8.18549 4.35164 8.04739 4.35164C7.95536 4.35164 7.90172 4.29369 7.88647 4.17776C7.88135 4.16721 7.87877 4.0749 7.87877 3.90105V1H7.18152V4.11463C7.18152 4.38334 7.2021 4.58089 7.24287 4.70745C7.30934 4.90246 7.45998 5 7.69491 5Z" fill="#181009"/>
</svg>
