<svg width="13" height="14" viewBox="0 0 13 14" fill="none" xmlns="http://www.w3.org/2000/svg"><path fill-rule="evenodd" clip-rule="evenodd" d="M12.995 13.651l-1.069-9.746a.324.324 0 0 0-.32-.279h-1.98v-.592C9.627 1.36 8.237 0 6.527 0c-1.711 0-3.1 1.36-3.1 3.034v.592H1.394a.324.324 0 0 0-.321.28L.004 13.65a.307.307 0 0 0 .072.244.29.29 0 0 0 .232.106h12.384a.29.29 0 0 0 .232-.105c.053-.07.09-.156.071-.244zM9.307 5.387a.278.278 0 1 1 0 .558.278.278 0 1 1 0-.558zM6.527.627c-1.355 0-2.46 1.082-2.46 2.407v.592h4.919v-.592c0-1.325-1.105-2.406-2.46-2.406zm-2.78 4.76a.278.278 0 1 1 0 .558.278.278 0 1 1 0-.558zM1.68 4.237l-.998 9.118h11.69l-.998-9.118H9.556v.575a.888.888 0 0 1 .606.837c0 .488-.41.889-.909.889a.903.903 0 0 1-.909-.89c0-.383.25-.714.606-.836v-.575H4.032v.575a.888.888 0 0 1 .606.837c0 .488-.41.889-.909.889a.903.903 0 0 1-.909-.89c0-.383.25-.714.606-.836v-.575H1.68z" fill="#181009"/></svg>