<svg width="13" height="14" viewBox="0 0 13 14" fill="none" xmlns="http://www.w3.org/2000/svg"><path fill-rule="evenodd" clip-rule="evenodd" d="M9.141 9.468l3.788 4.085a.272.272 0 0 1-.007.373.25.25 0 0 1-.36-.007L8.764 9.824a5.215 5.215 0 0 1-3.412 1.277C2.401 11.101 0 8.611 0 5.551 0 2.49 2.401 0 5.353 0s5.353 2.49 5.353 5.55A5.638 5.638 0 0 1 9.14 9.469zM.51 5.551c0 2.769 2.172 5.022 4.843 5.022 2.67 0 4.843-2.253 4.843-5.022 0-2.77-2.172-5.022-4.843-5.022C2.683.529.51 2.78.51 5.55z" fill="#181009"/></svg>