<svg width="13" height="13" viewBox="0 0 13 13" fill="none" xmlns="http://www.w3.org/2000/svg"><path fill-rule="evenodd" clip-rule="evenodd" d="M1.3 0h10.4c.715 0 1.3.585 1.3 1.3v10.4c0 .715-.585 1.3-1.3 1.3H1.3C.585 13 0 12.415 0 11.7V1.3C0 .585.585 0 1.3 0zm7.8 6.5c0-1.43-1.17-2.6-2.6-2.6-1.43 0-2.6 1.17-2.6 2.6 0 1.43 1.17 2.6 2.6 2.6 1.43 0 2.6-1.17 2.6-2.6zm-7.475 5.2c-.195 0-.325-.13-.325-.325V5.85h1.365c-.065.195-.065.455-.065.65 0 2.145 1.755 3.9 3.9 3.9s3.9-1.755 3.9-3.9c0-.195 0-.455-.065-.65H11.7v5.525c0 .195-.13.325-.325.325h-9.75zm9.75-8.45c.195 0 .325-.13.325-.325v-1.3c0-.195-.13-.325-.325-.325h-1.3c-.195 0-.325.13-.325.325v1.3c0 .195.13.325.325.325h1.3z" fill="#181009"/></svg>