<svg width="14" height="14" viewBox="0 0 14 14" fill="none" xmlns="http://www.w3.org/2000/svg"><path fill-rule="evenodd" clip-rule="evenodd" d="M11.95 2.053A6.955 6.955 0 0 0 7.095.005a1.054 1.054 0 0 0-.19 0A6.954 6.954 0 0 0 2.05 2.053 6.949 6.949 0 0 0 0 7c0 1.869.728 3.626 2.05 4.947a6.954 6.954 0 0 0 4.855 2.048 1.053 1.053 0 0 0 .19 0 6.955 6.955 0 0 0 4.855-2.048A6.949 6.949 0 0 0 14 7a6.949 6.949 0 0 0-2.05-4.947zm-9.311.588a6.135 6.135 0 0 1 2.626-1.559 6.68 6.68 0 0 0-.637.872 8.284 8.284 0 0 0-.662 1.338H2.072c.172-.228.361-.445.567-.65zm1.047 1.483H1.542c-.4.756-.638 1.59-.696 2.46h2.452c.033-.85.165-1.68.388-2.46zM1.542 9.876a6.113 6.113 0 0 1-.696-2.46h2.452c.033.85.165 1.68.388 2.46H1.542zm.53.832c.172.228.361.445.567.651a6.136 6.136 0 0 0 2.626 1.56 6.682 6.682 0 0 1-.637-.873 8.287 8.287 0 0 1-.662-1.338H2.072zm4.512 2.29v-2.29H4.866c.139.316.296.618.47.901.436.706.901 1.161 1.248 1.388zm-2.03-3.122h2.03v-2.46H4.13c.036.856.18 1.69.423 2.46zm2.03-3.292H4.13a9.51 9.51 0 0 1 .423-2.46h2.03v2.46zM4.866 3.292h1.718v-2.29c-.347.228-.812.683-1.248 1.389a7.301 7.301 0 0 0-.47.901zm7.592.832c.4.756.638 1.59.696 2.46h-2.452c-.033-.85-.165-1.68-.388-2.46h2.144zm-.53-.832a6.248 6.248 0 0 0-.567-.65 6.135 6.135 0 0 0-2.626-1.56c.222.255.437.548.637.872.256.415.477.863.662 1.338h1.894zm-4.512-2.29v2.29h1.718a7.301 7.301 0 0 0-.47-.901c-.436-.706-.901-1.161-1.248-1.388zm2.03 3.122h-2.03v2.46H9.87a9.511 9.511 0 0 0-.423-2.46zm.423 3.292a9.51 9.51 0 0 1-.423 2.46h-2.03v-2.46H9.87zm-2.453 3.292v2.29c.347-.227.812-.683 1.248-1.389.174-.283.331-.585.47-.901H7.416zm3.945.651a6.135 6.135 0 0 1-2.626 1.56c.222-.256.437-.549.637-.873a8.29 8.29 0 0 0 .662-1.338h1.894a6.255 6.255 0 0 1-.567.651zm-1.047-1.483h2.144c.4-.756.638-1.59.696-2.46h-2.452c-.033.85-.165 1.68-.388 2.46z" fill="#181009"/></svg>