<svg width="14" height="8" viewBox="0 0 14 8" fill="none" xmlns="http://www.w3.org/2000/svg"><g clip-path="url(#clip0)"><path d="M14 7.386H0V8h14v-.614z" fill="#CB001C"/><path d="M14 6.773H0v.613h14v-.613z" fill="#fff"/><path d="M14 6.151H0v.614h14v-.614z" fill="#CB001C"/><path d="M14 5.538H0v.613h14v-.613z" fill="#fff"/><path d="M14 4.924H0v.614h14v-.614z" fill="#CB001C"/><path d="M14 4.31H0v.614h14v-.613z" fill="#fff"/><path d="M14 3.69H0v.613h14v-.614z" fill="#CB001C"/><path d="M14 3.076H0v.613h14v-.613z" fill="#fff"/><path d="M14 2.462H0v.614h14v-.614z" fill="#CB001C"/><path d="M14 1.849H0v.613h14V1.85z" fill="#fff"/><path d="M14 1.227H0v.614h14v-.614z" fill="#CB001C"/><path d="M14 .614H0v.613h14V.614z" fill="#fff"/><path d="M14 0H0v.614h14V0z" fill="#CB001C"/><path d="M6.39 0H0v4.31h6.39V0z" fill="#2A3560"/><path d="M.579.474l.055.163H.81l-.143.1.055.164L.58.8.436.901.492.738.349.637h.174L.58.474zm0 .722l.055.163H.81l-.143.101.055.163-.142-.1-.143.1.056-.163-.143-.1h.174l.056-.164zm0 .714l.055.164H.81l-.143.1.055.164-.142-.101-.143.1.056-.162-.143-.101h.174L.58 1.91zm0 .723l.055.163H.81l-.143.101.055.163-.142-.1-.143.1.056-.163-.143-.1h.174l.056-.164zm0 .715l.055.163H.81l-.143.1.055.164-.142-.101-.143.1.056-.162-.143-.101h.174l.056-.163zM1.086.854l.056.163h.174l-.143.101.056.164-.143-.101-.135.1L1 1.119l-.143-.1h.182l.048-.164zm0 .715l.056.163h.174l-.143.101.056.163-.143-.093-.135.093L1 1.833l-.143-.101h.182l.048-.163zm0 .722l.056.163h.174l-.143.101.056.163-.143-.1-.135.1L1 2.555l-.143-.1h.182l.048-.164zm0 .723l.056.163h.174l-.143.1.056.156-.143-.101-.135.101L1 3.278l-.143-.101h.182l.048-.163zm.515-2.54l.056.163h.174l-.135.1.056.164L1.602.8l-.135.101.055-.163L1.38.637h.175L1.6.474zm0 .722l.056.163h.174l-.135.101.056.163-.15-.1-.135.1.055-.163-.143-.1h.175l.047-.164zm0 .714l.056.164h.174l-.135.1.056.164-.15-.101-.135.1.055-.162-.143-.101h.175L1.6 1.91zm0 .723l.056.163h.174l-.135.101.056.163-.15-.1-.135.1.055-.163-.143-.1h.175l.047-.164zm0 .715l.056.163h.174l-.135.1.056.164-.15-.101-.135.1.055-.162-.143-.101h.175l.047-.163zM2.117.854l.055.163h.175l-.143.101.055.164-.142-.101-.143.1.055-.163-.142-.1h.174l.056-.164zm0 .715l.055.163h.175l-.143.101.055.163-.142-.093-.143.093.055-.163-.142-.101h.174l.056-.163zm0 .722l.055.163h.175l-.143.101.055.163-.142-.1-.143.1.055-.163-.142-.1h.174l.056-.164zm0 .723l.055.163h.175l-.143.1.055.156-.142-.101-.143.101.055-.155-.142-.101h.174l.056-.163zm.515-2.54l.055.163h.175l-.143.1.056.164L2.632.8l-.135.101.048-.163L2.41.637h.174l.048-.163zm0 .722l.055.163h.175l-.143.101.056.163-.143-.1-.135.1.048-.163-.135-.1h.174l.048-.164zm0 .714l.055.164h.175l-.143.1.056.164-.143-.101-.135.1.048-.162-.135-.101h.174l.048-.163zm0 .723l.055.163h.175l-.143.101.056.163-.143-.1-.135.1.048-.163-.135-.1h.174l.048-.164zm0 .715l.055.163h.175l-.143.1.056.164-.143-.101-.135.1.048-.162-.135-.101h.174l.048-.163zM3.147.854l.056.163h.174l-.143.101.056.164-.143-.101-.142.1.055-.163-.143-.1h.175l.055-.164zm0 .715l.056.163h.174l-.143.101.056.163-.143-.093-.142.093.055-.163-.143-.101h.175l.055-.163zm0 .722l.056.163h.174l-.143.101.056.163-.143-.1-.142.1.055-.163-.143-.1h.175l.055-.164zm0 .723l.056.163h.174l-.143.1.056.156-.143-.101-.142.101.055-.155-.143-.101h.175l.055-.163zm.516-2.54l.055.163h.174l-.142.1.055.164L3.663.8 3.52.901l.055-.163-.142-.101h.174l.056-.163zm0 .722l.055.163h.174l-.142.101.055.163-.142-.1-.143.1.055-.163-.142-.1h.174l.056-.164zm0 .714l.055.164h.174l-.142.1.055.164-.142-.101-.143.1.055-.162-.142-.101h.174l.056-.163zm0 .723l.055.163h.174l-.142.101.055.163-.142-.1-.143.1.055-.163-.142-.1h.174l.056-.164zm0 .715l.055.163h.174l-.142.1.055.164-.142-.101-.143.1.055-.162-.142-.101h.174l.056-.163zM4.178.854l.047.163h.183l-.143.101.048.164-.135-.101-.143.1.056-.163-.143-.1h.174l.056-.164zm0 .715l.047.163h.183l-.143.101.048.163-.135-.093-.143.093.056-.163-.143-.101h.174l.056-.163zm0 .722l.047.163h.183l-.143.101.048.163-.135-.1-.143.1.056-.163-.143-.1h.174l.056-.164zm0 .723l.047.163h.183l-.143.1.048.156-.135-.101-.143.101.056-.155-.143-.101h.174l.056-.163zm.515-2.54l.056.163h.174l-.143.1.056.164L4.693.8 4.55.901l.056-.163-.143-.101h.175l.055-.163zm0 .722l.056.163h.174l-.143.101.056.163-.143-.1-.143.1.056-.163-.143-.1h.175l.055-.164zm0 .714l.056.164h.174l-.143.1.056.164-.143-.101-.143.1.056-.162-.143-.101h.175l.055-.163zm0 .723l.056.163h.174l-.143.101.056.163-.143-.1-.143.1.056-.163-.143-.1h.175l.055-.164zm0 .715l.056.163h.174l-.143.1.056.164-.143-.101-.143.1.056-.162-.143-.101h.175l.055-.163zM5.2.854l.056.163h.174l-.134.101.047.164L5.2 1.18l-.142.1.055-.163-.135-.1h.175L5.2.853zm0 .715l.056.163h.174l-.134.101.047.163-.143-.093-.142.093.055-.163-.135-.101h.175l.047-.163zm0 .722l.056.163h.174l-.134.101.047.163-.143-.1-.142.1.055-.163-.135-.1h.175L5.2 2.29zm0 .723l.056.163h.174l-.134.1.047.156-.143-.101-.142.101.055-.155-.135-.101h.175l.047-.163zm.524-2.54l.055.163h.167l-.135.1.055.164L5.724.8 5.58.901l.055-.163-.142-.101h.174l.056-.163zm0 .722l.055.163h.167l-.135.101.055.163-.142-.1-.143.1.055-.163-.142-.1h.174l.056-.164zm0 .714l.055.164h.167l-.135.1.055.164-.142-.101-.143.1.055-.162-.142-.101h.174l.056-.163zm0 .723l.055.163h.167l-.135.101.055.163-.142-.1-.143.1.055-.163-.142-.1h.174l.056-.164zm0 .715l.055.163h.167l-.135.1.055.164-.142-.101-.143.1.055-.162-.142-.101h.174l.056-.163z" fill="#fff"/></g><defs><clipPath id="clip0"><path fill="#fff" d="M0 0h14v8H0z"/></clipPath></defs></svg>