<svg width="11" height="13" viewBox="0 0 11 13" fill="none" xmlns="http://www.w3.org/2000/svg"><path d="M5.684 0C1.974 0 0 2.283 0 4.773c0 1.154.672 2.594 1.747 3.05.164.072.253.042.289-.104.032-.11.173-.643.242-.894A.223.223 0 0 0 2.22 6.6c-.357-.396-.64-1.118-.64-1.796 0-1.736 1.438-3.422 3.884-3.422C7.58 1.38 9.06 2.7 9.06 4.588c0 2.132-1.176 3.608-2.703 3.608-.846 0-1.475-.637-1.275-1.425.24-.939.714-1.948.714-2.625 0-.607-.357-1.109-1.087-1.109-.86 0-1.559.818-1.559 1.917 0 .698.258 1.17.258 1.17s-.852 3.301-1.01 3.918c-.267 1.044.037 2.735.063 2.88.016.081.11.106.162.04.084-.105 1.113-1.515 1.402-2.534l.535-1.877c.284.492 1.102.904 1.974.904C9.126 9.455 11 7.267 11 4.55 10.99 1.948 8.67 0 5.684 0z" fill="#181009"/></svg>