<svg width="16" height="13" viewBox="0 0 16 13" fill="none" xmlns="http://www.w3.org/2000/svg"><path d="M16 1.544c-.63.27-1.26.44-1.888.508A3.185 3.185 0 0 0 15.553.244c-.65.386-1.343.65-2.08.792A3.161 3.161 0 0 0 11.075 0c-.907 0-1.68.32-2.32.96a3.16 3.16 0 0 0-.959 2.32c0 .244.027.495.081.752a9.134 9.134 0 0 1-3.771-1.01A9.297 9.297 0 0 1 1.117.598 3.215 3.215 0 0 0 .67 2.255a3.29 3.29 0 0 0 1.462 2.732A3.252 3.252 0 0 1 .65 4.57v.04c0 .793.249 1.489.746 2.088.497.6 1.125.977 1.883 1.132a3.396 3.396 0 0 1-.863.112c-.19 0-.396-.017-.62-.05a3.21 3.21 0 0 0 1.158 1.62 3.198 3.198 0 0 0 1.909.655 6.419 6.419 0 0 1-4.071 1.401 6.99 6.99 0 0 1-.792-.04A9.104 9.104 0 0 0 5.036 13a9.578 9.578 0 0 0 3.278-.553c1.023-.37 1.896-.864 2.62-1.483a9.92 9.92 0 0 0 1.873-2.138 9.535 9.535 0 0 0 1.173-2.524 9.327 9.327 0 0 0 .375-3.062A6.868 6.868 0 0 0 16 1.544z" fill="#181009"/></svg>