<svg width="11" height="13" viewBox="0 0 11 13" fill="none" xmlns="http://www.w3.org/2000/svg"><path fill-rule="evenodd" clip-rule="evenodd" d="M10.807 7.126a1.22 1.22 0 0 0-.427-.672 1.42 1.42 0 0 0-.76-.318C8.708 6.046 7.335 6 5.5 6c-1.836 0-3.206.045-4.112.136a1.407 1.407 0 0 0-.764.318 1.27 1.27 0 0 0-.431.672C.064 7.65 0 8.442 0 9.5c0 1.076.064 1.868.193 2.374.064.267.207.49.427.671.22.181.474.285.76.313.911.095 2.284.142 4.12.142 1.836 0 3.209-.047 4.12-.143.286-.027.539-.13.756-.311a1.26 1.26 0 0 0 .43-.672c.13-.524.194-1.316.194-2.374 0-1.076-.064-1.868-.193-2.374zm-8.461.685v3.86h-.742V7.81h-.78v-.637H3.14v.637h-.794zm2.137 3.493v.367h.66V8.32h-.66v2.564c-.148.19-.29.285-.423.285-.089 0-.14-.048-.156-.143a1.712 1.712 0 0 1-.007-.237v-2.47h-.66v2.653c0 .222.02.387.059.495.059.167.203.251.43.251.238 0 .49-.138.757-.414zm3.184-.637c0 .33-.022.556-.066.678-.085.249-.26.373-.527.373-.238 0-.468-.124-.69-.373v.326h-.661V7.174h.66v1.472c.213-.244.443-.366.69-.366.268 0 .443.126.528.38.044.117.066.34.066.67v1.337zm1.075.034v-.59h1.434v-.699c0-.357-.067-.62-.2-.787-.193-.23-.455-.346-.787-.346-.337 0-.601.116-.794.346-.139.167-.208.43-.208.787v1.173c0 .358.072.62.215.787.193.23.46.346.802.346.356 0 .623-.12.801-.36a.78.78 0 0 0 .156-.366c.01-.04.015-.171.015-.393v-.088H9.54c0 .23-.006.368-.015.414-.035.162-.18.244-.343.244-.228 0-.44-.156-.44-.468z" fill="#181009"/><path d="M6.717 9c-.182 0-.36.043-.535.128v1.745c.174.085.353.127.535.127.31 0 .465-.13.465-.388V9.388c0-.259-.155-.388-.465-.388zm2.479-.246c-.334 0-.5.199-.5.596v.404h1V9.35c0-.397-.167-.596-.5-.596zM2.271 2.978V5h.865V2.978L4.182 0H3.3l-.588 1.963L2.098 0h-.916c.16.418.348.883.562 1.396.27.686.446 1.213.527 1.582z" fill="#181009"/><path fill-rule="evenodd" clip-rule="evenodd" d="M5.972 4.602c-.185.265-.45.398-.794.398a.913.913 0 0 1-.787-.398c-.14-.198-.21-.506-.21-.922V2.313c0-.417.07-.722.21-.915A.913.913 0 0 1 5.178 1c.344 0 .609.133.794.398.14.193.21.498.21.915V3.68c0 .422-.07.729-.21.922zM5.5 2.172c0-.36-.107-.54-.322-.54-.215 0-.322.18-.322.54v1.64c0 .365.107.547.322.547.215 0 .322-.182.322-.547v-1.64z" fill="#181009"/><path d="M7.695 5c.255 0 .519-.163.79-.49v.435h.697V1h-.698v3.012c-.153.226-.299.34-.437.34-.092 0-.145-.058-.16-.174a2.13 2.13 0 0 1-.008-.277V1h-.697v3.115c0 .268.02.466.06.592.067.195.218.293.453.293z" fill="#181009"/></svg>